<?xml version="1.0" encoding="UTF-8" standalone="no"?>
<!DOCTYPE svg PUBLIC "-//W3C//DTD SVG 1.1//EN" "http://www.w3.org/Graphics/SVG/1.1/DTD/svg11.dtd">
<svg width="100%" height="100%" viewBox="0 0 1024 1024" version="1.1" xmlns="http://www.w3.org/2000/svg" xmlns:xlink="http://www.w3.org/1999/xlink" xml:space="preserve" xmlns:serif="http://www.serif.com/" style="fill-rule:evenodd;clip-rule:evenodd;stroke-linejoin:round;stroke-miterlimit:2;">
    <g transform="matrix(2.52454,0,0,0.399231,-189.393,847.359)">
        <path d="M473.633,276.837L473.633,364.817C473.633,389.095 470.516,408.806 466.677,408.806L88.982,408.806C85.143,408.806 82.026,389.095 82.026,364.817L82.026,276.837C82.026,252.559 85.143,232.848 88.982,232.848L466.677,232.848C470.516,232.848 473.633,252.559 473.633,276.837Z" style="fill:rgb(46,65,87);"/>
    </g>
    <g transform="matrix(2.52454,0,0,0.399231,-189.393,763.013)">
        <path d="M473.633,276.837L473.633,364.817C473.633,389.095 470.516,408.806 466.677,408.806L88.982,408.806C85.143,408.806 82.026,389.095 82.026,364.817L82.026,276.837C82.026,252.559 85.143,232.848 88.982,232.848L466.677,232.848C470.516,232.848 473.633,252.559 473.633,276.837Z" style="fill:rgb(3,139,168);"/>
    </g>
    <g transform="matrix(2.52454,0,0,0.399231,-189.393,-72.5268)">
        <path d="M473.633,276.837L473.633,364.817C473.633,389.095 470.516,408.806 466.677,408.806L88.982,408.806C85.143,408.806 82.026,389.095 82.026,364.817L82.026,276.837C82.026,252.559 85.143,232.848 88.982,232.848L466.677,232.848C470.516,232.848 473.633,252.559 473.633,276.837Z" style="fill:rgb(3,139,168);"/>
    </g>
    <g transform="matrix(2.20435,0,0,2.65378,-61.6938,-325.099)">
        <path d="M484.501,194.968L484.501,406.076C484.501,422.258 468.685,435.396 449.203,435.396L71.309,435.396C51.827,435.396 36.01,422.258 36.01,406.076L36.01,194.968C36.01,178.785 51.827,165.647 71.309,165.647L449.203,165.647C468.685,165.647 484.501,178.785 484.501,194.968Z" style="fill:rgb(241,143,2);"/>
    </g>
    <g transform="matrix(2.20435,0,0,2.65378,-61.6938,-325.099)">
        <path d="M314.183,435.396L71.309,435.396C51.827,435.396 36.01,422.258 36.01,406.076L36.01,275.072L314.183,435.396Z" style="fill-opacity:0.05;"/>
    </g>
    <g transform="matrix(2.20435,0,0,2.20435,464.901,164.038)">
        <path d="M216.061,175.632L216.061,190.363C216.061,194.428 212.761,197.729 208.696,197.729L82.66,197.729C78.595,197.729 75.294,194.428 75.294,190.363L75.294,175.632C75.294,171.566 78.595,168.266 82.66,168.266L208.696,168.266C212.761,168.266 216.061,171.566 216.061,175.632Z" style="fill:rgb(194,125,26);"/>
    </g>
    <g transform="matrix(2.289,0,0,9.1028,458.527,-1319.53)">
        <path d="M216.061,175.632L216.061,190.363C216.061,194.428 202.936,197.729 186.77,197.729L104.586,197.729C88.419,197.729 75.294,194.428 75.294,190.363L75.294,175.632C75.294,171.566 88.419,168.266 104.586,168.266L186.77,168.266C202.936,168.266 216.061,171.566 216.061,175.632Z" style="fill:rgb(194,125,26);"/>
    </g>
    <g transform="matrix(2.20435,0,0,2.20435,464.901,269.248)">
        <path d="M216.061,175.632L216.061,190.363C216.061,194.428 212.761,197.729 208.696,197.729L82.66,197.729C78.595,197.729 75.294,194.428 75.294,190.363L75.294,175.632C75.294,171.566 78.595,168.266 82.66,168.266L208.696,168.266C212.761,168.266 216.061,171.566 216.061,175.632Z" style="fill:rgb(194,125,26);"/>
    </g>
</svg>
